<mxfile host="app.diagrams.net" agent="Mozilla/5.0 (Windows NT 10.0; Win64; x64) AppleWebKit/537.36 (KHTML, like Gecko) Chrome/133.0.0.0 Safari/537.36" version="26.0.15">
  <diagram name="PÃ¡gina-1" id="Ki7RBG-jd6vjh0YTun5y">
    <mxGraphModel dx="724" dy="366" grid="1" gridSize="10" guides="1" tooltips="1" connect="1" arrows="1" fold="1" page="1" pageScale="1" pageWidth="827" pageHeight="1169" math="0" shadow="0">
      <root>
        <mxCell id="0" />
        <mxCell id="1" parent="0" />
        <mxCell id="DIcqsgywZD_siY0p0NZ6-14" style="edgeStyle=orthogonalEdgeStyle;rounded=0;orthogonalLoop=1;jettySize=auto;html=1;entryX=0;entryY=0.5;entryDx=0;entryDy=0;" parent="1" source="DIcqsgywZD_siY0p0NZ6-1" target="DIcqsgywZD_siY0p0NZ6-4" edge="1">
          <mxGeometry relative="1" as="geometry" />
        </mxCell>
        <mxCell id="DIcqsgywZD_siY0p0NZ6-1" value="ResNet50" style="rounded=0;whiteSpace=wrap;html=1;fillColor=#f8cecc;gradientColor=#ea6b66;strokeColor=#b85450;" parent="1" vertex="1">
          <mxGeometry x="120" y="127.5" width="60" height="60" as="geometry" />
        </mxCell>
        <mxCell id="DIcqsgywZD_siY0p0NZ6-53" style="edgeStyle=orthogonalEdgeStyle;rounded=0;orthogonalLoop=1;jettySize=auto;html=1;entryX=0;entryY=0.5;entryDx=0;entryDy=0;" parent="1" source="DIcqsgywZD_siY0p0NZ6-2" target="DIcqsgywZD_siY0p0NZ6-1" edge="1">
          <mxGeometry relative="1" as="geometry" />
        </mxCell>
        <mxCell id="DIcqsgywZD_siY0p0NZ6-2" value="Input" style="ellipse;whiteSpace=wrap;html=1;fillColor=#ffcc99;strokeColor=#36393d;" parent="1" vertex="1">
          <mxGeometry x="40" y="130" width="50" height="55" as="geometry" />
        </mxCell>
        <mxCell id="DIcqsgywZD_siY0p0NZ6-15" style="edgeStyle=orthogonalEdgeStyle;rounded=0;orthogonalLoop=1;jettySize=auto;html=1;entryX=0;entryY=0.5;entryDx=0;entryDy=0;" parent="1" source="DIcqsgywZD_siY0p0NZ6-4" target="DIcqsgywZD_siY0p0NZ6-5" edge="1">
          <mxGeometry relative="1" as="geometry" />
        </mxCell>
        <mxCell id="DIcqsgywZD_siY0p0NZ6-16" style="edgeStyle=orthogonalEdgeStyle;rounded=0;orthogonalLoop=1;jettySize=auto;html=1;entryX=0;entryY=0.5;entryDx=0;entryDy=0;" parent="1" source="DIcqsgywZD_siY0p0NZ6-5" target="DIcqsgywZD_siY0p0NZ6-6" edge="1">
          <mxGeometry relative="1" as="geometry" />
        </mxCell>
        <mxCell id="DIcqsgywZD_siY0p0NZ6-17" style="edgeStyle=orthogonalEdgeStyle;rounded=0;orthogonalLoop=1;jettySize=auto;html=1;entryX=0;entryY=0.5;entryDx=0;entryDy=0;" parent="1" source="DIcqsgywZD_siY0p0NZ6-6" target="DIcqsgywZD_siY0p0NZ6-8" edge="1">
          <mxGeometry relative="1" as="geometry" />
        </mxCell>
        <mxCell id="DIcqsgywZD_siY0p0NZ6-28" style="edgeStyle=orthogonalEdgeStyle;rounded=0;orthogonalLoop=1;jettySize=auto;html=1;entryX=0;entryY=0.5;entryDx=0;entryDy=0;" parent="1" source="DIcqsgywZD_siY0p0NZ6-7" target="DIcqsgywZD_siY0p0NZ6-27" edge="1">
          <mxGeometry relative="1" as="geometry" />
        </mxCell>
        <mxCell id="DIcqsgywZD_siY0p0NZ6-18" style="edgeStyle=orthogonalEdgeStyle;rounded=0;orthogonalLoop=1;jettySize=auto;html=1;entryX=0;entryY=0.5;entryDx=0;entryDy=0;" parent="1" source="DIcqsgywZD_siY0p0NZ6-8" target="DIcqsgywZD_siY0p0NZ6-7" edge="1">
          <mxGeometry relative="1" as="geometry" />
        </mxCell>
        <mxCell id="DIcqsgywZD_siY0p0NZ6-54" value="" style="group" parent="1" vertex="1" connectable="0">
          <mxGeometry x="180" y="127.5" width="75" height="80" as="geometry" />
        </mxCell>
        <mxCell id="DIcqsgywZD_siY0p0NZ6-4" value="" style="rounded=0;whiteSpace=wrap;html=1;fillColor=#ffcd28;strokeColor=#d79b00;gradientColor=#ffa500;" parent="DIcqsgywZD_siY0p0NZ6-54" vertex="1">
          <mxGeometry x="25" width="20" height="60" as="geometry" />
        </mxCell>
        <mxCell id="DIcqsgywZD_siY0p0NZ6-9" value="&lt;font&gt;Conv_layer&lt;/font&gt;" style="text;html=1;align=center;verticalAlign=middle;resizable=0;points=[];autosize=1;strokeColor=none;fillColor=none;fontSize=11;spacing=0;" parent="DIcqsgywZD_siY0p0NZ6-54" vertex="1">
          <mxGeometry x="-5" y="60" width="80" height="20" as="geometry" />
        </mxCell>
        <mxCell id="DIcqsgywZD_siY0p0NZ6-55" value="" style="group" parent="1" vertex="1" connectable="0">
          <mxGeometry x="230" y="107.5" width="70" height="80" as="geometry" />
        </mxCell>
        <mxCell id="DIcqsgywZD_siY0p0NZ6-5" value="" style="rounded=0;whiteSpace=wrap;html=1;fillColor=#bac8d3;strokeColor=#23445d;" parent="DIcqsgywZD_siY0p0NZ6-55" vertex="1">
          <mxGeometry x="20" y="20" width="20" height="60" as="geometry" />
        </mxCell>
        <mxCell id="DIcqsgywZD_siY0p0NZ6-10" value="&lt;font&gt;Batch_Norm&lt;/font&gt;" style="text;html=1;align=center;verticalAlign=middle;resizable=0;points=[];autosize=1;strokeColor=none;fillColor=none;fontSize=11;spacing=0;" parent="DIcqsgywZD_siY0p0NZ6-55" vertex="1">
          <mxGeometry x="-10" width="80" height="20" as="geometry" />
        </mxCell>
        <mxCell id="DIcqsgywZD_siY0p0NZ6-56" value="" style="group" parent="1" vertex="1" connectable="0">
          <mxGeometry x="270" y="127.5" width="70" height="80" as="geometry" />
        </mxCell>
        <mxCell id="DIcqsgywZD_siY0p0NZ6-6" value="" style="rounded=0;whiteSpace=wrap;html=1;fillColor=#dae8fc;strokeColor=#6c8ebf;gradientColor=#7ea6e0;" parent="DIcqsgywZD_siY0p0NZ6-56" vertex="1">
          <mxGeometry x="20" width="20" height="60" as="geometry" />
        </mxCell>
        <mxCell id="DIcqsgywZD_siY0p0NZ6-11" value="&lt;font&gt;Max_pooling&lt;/font&gt;" style="text;html=1;align=center;verticalAlign=middle;resizable=0;points=[];autosize=1;strokeColor=none;fillColor=none;fontSize=11;spacing=0;" parent="DIcqsgywZD_siY0p0NZ6-56" vertex="1">
          <mxGeometry x="-10" y="60" width="80" height="20" as="geometry" />
        </mxCell>
        <mxCell id="DIcqsgywZD_siY0p0NZ6-57" value="" style="group" parent="1" vertex="1" connectable="0">
          <mxGeometry x="310" y="107.5" width="80" height="80" as="geometry" />
        </mxCell>
        <mxCell id="DIcqsgywZD_siY0p0NZ6-8" value="" style="rounded=0;whiteSpace=wrap;html=1;fillColor=#d5e8d4;strokeColor=#82b366;" parent="DIcqsgywZD_siY0p0NZ6-57" vertex="1">
          <mxGeometry x="25" y="20" width="20" height="60" as="geometry" />
        </mxCell>
        <mxCell id="DIcqsgywZD_siY0p0NZ6-12" value="&lt;font&gt;Dropout_inicial&lt;/font&gt;" style="text;html=1;align=center;verticalAlign=middle;resizable=0;points=[];autosize=1;strokeColor=none;fillColor=none;fontSize=11;spacing=0;" parent="DIcqsgywZD_siY0p0NZ6-57" vertex="1">
          <mxGeometry x="-10" width="90" height="20" as="geometry" />
        </mxCell>
        <mxCell id="DIcqsgywZD_siY0p0NZ6-58" value="" style="group" parent="1" vertex="1" connectable="0">
          <mxGeometry x="355" y="127.5" width="80" height="95" as="geometry" />
        </mxCell>
        <mxCell id="DIcqsgywZD_siY0p0NZ6-7" value="" style="rounded=0;whiteSpace=wrap;html=1;fillColor=#f8cecc;strokeColor=#b85450;gradientColor=#ea6b66;" parent="DIcqsgywZD_siY0p0NZ6-58" vertex="1">
          <mxGeometry x="25" width="20" height="60" as="geometry" />
        </mxCell>
        <mxCell id="DIcqsgywZD_siY0p0NZ6-13" value="&lt;font&gt;Global Average&lt;/font&gt;&lt;div&gt;&lt;font&gt;Pooling&lt;/font&gt;&lt;/div&gt;" style="text;html=1;align=center;verticalAlign=middle;resizable=0;points=[];autosize=1;strokeColor=none;fillColor=none;fontSize=11;spacing=0;" parent="DIcqsgywZD_siY0p0NZ6-58" vertex="1">
          <mxGeometry x="-10" y="55" width="90" height="40" as="geometry" />
        </mxCell>
        <mxCell id="DIcqsgywZD_siY0p0NZ6-59" value="" style="group" parent="1" vertex="1" connectable="0">
          <mxGeometry x="410" y="107.5" width="105" height="80" as="geometry" />
        </mxCell>
        <mxCell id="DIcqsgywZD_siY0p0NZ6-27" value="" style="rounded=0;whiteSpace=wrap;html=1;fillColor=#ffe6cc;strokeColor=#d79b00;" parent="DIcqsgywZD_siY0p0NZ6-59" vertex="1">
          <mxGeometry x="25" y="20" width="40" height="60" as="geometry" />
        </mxCell>
        <mxCell id="DIcqsgywZD_siY0p0NZ6-29" value="&lt;font&gt;Self_Attention_block&lt;/font&gt;" style="text;html=1;align=center;verticalAlign=middle;resizable=0;points=[];autosize=1;strokeColor=none;fillColor=none;fontSize=11;spacing=0;" parent="DIcqsgywZD_siY0p0NZ6-59" vertex="1">
          <mxGeometry x="-15" width="120" height="20" as="geometry" />
        </mxCell>
        <mxCell id="DIcqsgywZD_siY0p0NZ6-60" value="" style="group" parent="1" vertex="1" connectable="0">
          <mxGeometry x="70" y="220" width="280" height="160" as="geometry" />
        </mxCell>
        <mxCell id="DIcqsgywZD_siY0p0NZ6-51" style="edgeStyle=orthogonalEdgeStyle;rounded=0;orthogonalLoop=1;jettySize=auto;html=1;exitX=0;exitY=0.5;exitDx=0;exitDy=0;entryX=0;entryY=0.5;entryDx=0;entryDy=0;" parent="DIcqsgywZD_siY0p0NZ6-60" source="DIcqsgywZD_siY0p0NZ6-30" target="DIcqsgywZD_siY0p0NZ6-31" edge="1">
          <mxGeometry relative="1" as="geometry" />
        </mxCell>
        <mxCell id="DIcqsgywZD_siY0p0NZ6-30" value="" style="rounded=0;whiteSpace=wrap;html=1;fillColor=#ffe6cc;strokeColor=#d79b00;" parent="DIcqsgywZD_siY0p0NZ6-60" vertex="1">
          <mxGeometry x="20" width="239.26" height="160" as="geometry" />
        </mxCell>
        <mxCell id="DIcqsgywZD_siY0p0NZ6-34" style="edgeStyle=orthogonalEdgeStyle;rounded=0;orthogonalLoop=1;jettySize=auto;html=1;entryX=0;entryY=0.5;entryDx=0;entryDy=0;" parent="DIcqsgywZD_siY0p0NZ6-60" source="DIcqsgywZD_siY0p0NZ6-31" target="DIcqsgywZD_siY0p0NZ6-32" edge="1">
          <mxGeometry relative="1" as="geometry" />
        </mxCell>
        <mxCell id="DIcqsgywZD_siY0p0NZ6-35" style="edgeStyle=orthogonalEdgeStyle;rounded=0;orthogonalLoop=1;jettySize=auto;html=1;entryX=0;entryY=0.25;entryDx=0;entryDy=0;" parent="DIcqsgywZD_siY0p0NZ6-60" source="DIcqsgywZD_siY0p0NZ6-31" target="DIcqsgywZD_siY0p0NZ6-32" edge="1">
          <mxGeometry relative="1" as="geometry" />
        </mxCell>
        <mxCell id="DIcqsgywZD_siY0p0NZ6-36" style="edgeStyle=orthogonalEdgeStyle;rounded=0;orthogonalLoop=1;jettySize=auto;html=1;entryX=0;entryY=0.75;entryDx=0;entryDy=0;" parent="DIcqsgywZD_siY0p0NZ6-60" source="DIcqsgywZD_siY0p0NZ6-31" target="DIcqsgywZD_siY0p0NZ6-32" edge="1">
          <mxGeometry relative="1" as="geometry" />
        </mxCell>
        <mxCell id="DIcqsgywZD_siY0p0NZ6-31" value="" style="rounded=0;whiteSpace=wrap;html=1;fillColor=#cdeb8b;strokeColor=#36393d;" parent="DIcqsgywZD_siY0p0NZ6-60" vertex="1">
          <mxGeometry x="41.48148148148149" y="48" width="20.740740740740744" height="64" as="geometry" />
        </mxCell>
        <mxCell id="DIcqsgywZD_siY0p0NZ6-37" style="edgeStyle=orthogonalEdgeStyle;rounded=0;orthogonalLoop=1;jettySize=auto;html=1;entryX=0;entryY=0.5;entryDx=0;entryDy=0;" parent="DIcqsgywZD_siY0p0NZ6-60" source="DIcqsgywZD_siY0p0NZ6-32" target="DIcqsgywZD_siY0p0NZ6-33" edge="1">
          <mxGeometry relative="1" as="geometry" />
        </mxCell>
        <mxCell id="DIcqsgywZD_siY0p0NZ6-40" style="edgeStyle=orthogonalEdgeStyle;rounded=0;orthogonalLoop=1;jettySize=auto;html=1;exitX=1;exitY=0.25;exitDx=0;exitDy=0;entryX=0;entryY=0.25;entryDx=0;entryDy=0;" parent="DIcqsgywZD_siY0p0NZ6-60" source="DIcqsgywZD_siY0p0NZ6-32" target="DIcqsgywZD_siY0p0NZ6-33" edge="1">
          <mxGeometry relative="1" as="geometry" />
        </mxCell>
        <mxCell id="DIcqsgywZD_siY0p0NZ6-41" style="edgeStyle=orthogonalEdgeStyle;rounded=0;orthogonalLoop=1;jettySize=auto;html=1;exitX=1;exitY=0.75;exitDx=0;exitDy=0;entryX=0;entryY=0.75;entryDx=0;entryDy=0;" parent="DIcqsgywZD_siY0p0NZ6-60" source="DIcqsgywZD_siY0p0NZ6-32" target="DIcqsgywZD_siY0p0NZ6-33" edge="1">
          <mxGeometry relative="1" as="geometry" />
        </mxCell>
        <mxCell id="DIcqsgywZD_siY0p0NZ6-32" value="" style="rounded=0;whiteSpace=wrap;html=1;fillColor=#ffcccc;strokeColor=#36393d;" parent="DIcqsgywZD_siY0p0NZ6-60" vertex="1">
          <mxGeometry x="132.22222222222223" y="21.333333333333332" width="20.740740740740744" height="117.33333333333333" as="geometry" />
        </mxCell>
        <mxCell id="DIcqsgywZD_siY0p0NZ6-50" style="edgeStyle=orthogonalEdgeStyle;rounded=0;orthogonalLoop=1;jettySize=auto;html=1;" parent="DIcqsgywZD_siY0p0NZ6-60" source="DIcqsgywZD_siY0p0NZ6-33" edge="1">
          <mxGeometry relative="1" as="geometry">
            <mxPoint x="254" y="80" as="targetPoint" />
          </mxGeometry>
        </mxCell>
        <mxCell id="DIcqsgywZD_siY0p0NZ6-33" value="" style="rounded=0;whiteSpace=wrap;html=1;fillColor=#cdeb8b;strokeColor=#36393d;" parent="DIcqsgywZD_siY0p0NZ6-60" vertex="1">
          <mxGeometry x="207.40740740740742" y="48" width="20.740740740740744" height="64" as="geometry" />
        </mxCell>
        <mxCell id="DIcqsgywZD_siY0p0NZ6-42" value="&lt;font style=&quot;font-size: 10px;&quot;&gt;Reshape_Layer&lt;/font&gt;" style="text;html=1;align=center;verticalAlign=middle;resizable=0;points=[];autosize=1;strokeColor=none;fillColor=none;fontSize=7;spacing=-4;spacingRight=0;" parent="DIcqsgywZD_siY0p0NZ6-60" vertex="1">
          <mxGeometry x="176.29629629629628" y="32" width="80" height="10" as="geometry" />
        </mxCell>
        <mxCell id="DIcqsgywZD_siY0p0NZ6-43" value="&lt;font style=&quot;font-size: 10px;&quot;&gt;Reshape_Layer&lt;/font&gt;" style="text;html=1;align=center;verticalAlign=middle;resizable=0;points=[];autosize=1;strokeColor=none;fillColor=none;fontSize=7;spacing=-4;spacingRight=0;" parent="DIcqsgywZD_siY0p0NZ6-60" vertex="1">
          <mxGeometry x="25.925925925925927" y="32" width="80" height="10" as="geometry" />
        </mxCell>
        <mxCell id="DIcqsgywZD_siY0p0NZ6-44" value="&lt;font style=&quot;font-size: 9px;&quot;&gt;Multi-Head Attention &lt;/font&gt;" style="text;html=1;align=center;verticalAlign=middle;resizable=0;points=[];autosize=1;strokeColor=none;fillColor=none;fontSize=7;spacing=-4;spacingRight=0;" parent="DIcqsgywZD_siY0p0NZ6-60" vertex="1">
          <mxGeometry x="95.92592592592592" y="138.66666666666669" width="90" height="10" as="geometry" />
        </mxCell>
        <mxCell id="DIcqsgywZD_siY0p0NZ6-47" style="edgeStyle=orthogonalEdgeStyle;rounded=0;orthogonalLoop=1;jettySize=auto;html=1;entryX=0;entryY=0.5;entryDx=0;entryDy=0;" parent="DIcqsgywZD_siY0p0NZ6-60" target="DIcqsgywZD_siY0p0NZ6-31" edge="1">
          <mxGeometry relative="1" as="geometry">
            <mxPoint x="30" y="80" as="sourcePoint" />
            <Array as="points">
              <mxPoint x="21.777777777777775" y="80" />
              <mxPoint x="21.777777777777775" y="80" />
            </Array>
          </mxGeometry>
        </mxCell>
        <mxCell id="DIcqsgywZD_siY0p0NZ6-52" value="&lt;font&gt;Self-Attention Block&lt;/font&gt;" style="text;html=1;align=center;verticalAlign=middle;resizable=0;points=[];autosize=1;strokeColor=#d6b656;fillColor=#fff2cc;fontSize=9;spacing=-2;spacingTop=2;" parent="DIcqsgywZD_siY0p0NZ6-60" vertex="1">
          <mxGeometry x="169.25592592592596" width="90" height="20" as="geometry" />
        </mxCell>
        <mxCell id="DIcqsgywZD_siY0p0NZ6-71" value="H&lt;font style=&quot;font-size: 8px;&quot;&gt;1&lt;/font&gt;" style="text;html=1;align=center;verticalAlign=middle;resizable=0;points=[];autosize=1;strokeColor=none;fillColor=none;spacing=-2;spacingTop=-2;spacingRight=0;spacingBottom=-1;spacingLeft=-1;" parent="DIcqsgywZD_siY0p0NZ6-60" vertex="1">
          <mxGeometry x="158.14814814814815" y="37.33333333333333" width="20" height="10" as="geometry" />
        </mxCell>
        <mxCell id="DIcqsgywZD_siY0p0NZ6-72" value="H&lt;span style=&quot;font-size: 8px;&quot;&gt;2&lt;/span&gt;" style="text;html=1;align=center;verticalAlign=middle;resizable=0;points=[];autosize=1;strokeColor=none;fillColor=none;spacing=-2;spacingTop=-2;spacingRight=0;spacingBottom=-1;spacingLeft=-1;" parent="DIcqsgywZD_siY0p0NZ6-60" vertex="1">
          <mxGeometry x="158.14814814814815" y="64" width="20" height="10" as="geometry" />
        </mxCell>
        <mxCell id="DIcqsgywZD_siY0p0NZ6-73" value="H&lt;span style=&quot;font-size: 8px;&quot;&gt;n&lt;/span&gt;" style="text;html=1;align=center;verticalAlign=middle;resizable=0;points=[];autosize=1;strokeColor=none;fillColor=none;spacing=-2;spacingTop=-2;spacingRight=0;spacingBottom=-1;spacingLeft=-1;" parent="DIcqsgywZD_siY0p0NZ6-60" vertex="1">
          <mxGeometry x="158.14814814814815" y="96" width="20" height="10" as="geometry" />
        </mxCell>
        <mxCell id="DIcqsgywZD_siY0p0NZ6-62" style="edgeStyle=orthogonalEdgeStyle;rounded=0;orthogonalLoop=1;jettySize=auto;html=1;entryX=0;entryY=0.5;entryDx=0;entryDy=0;" parent="1" source="DIcqsgywZD_siY0p0NZ6-27" target="DIcqsgywZD_siY0p0NZ6-19" edge="1">
          <mxGeometry relative="1" as="geometry" />
        </mxCell>
        <mxCell id="DIcqsgywZD_siY0p0NZ6-65" value="" style="group" parent="1" vertex="1" connectable="0">
          <mxGeometry x="500" y="122.5" width="105" height="100" as="geometry" />
        </mxCell>
        <mxCell id="DIcqsgywZD_siY0p0NZ6-19" value="" style="rounded=0;whiteSpace=wrap;html=1;fillColor=#e1d5e7;strokeColor=#9673a6;" parent="DIcqsgywZD_siY0p0NZ6-65" vertex="1">
          <mxGeometry y="5" width="20" height="60" as="geometry" />
        </mxCell>
        <mxCell id="DIcqsgywZD_siY0p0NZ6-20" value="" style="rounded=0;whiteSpace=wrap;html=1;fillColor=#d5e8d4;strokeColor=#82b366;" parent="DIcqsgywZD_siY0p0NZ6-65" vertex="1">
          <mxGeometry x="10" y="15" width="20" height="60" as="geometry" />
        </mxCell>
        <mxCell id="DIcqsgywZD_siY0p0NZ6-21" value="" style="rounded=0;whiteSpace=wrap;html=1;fillColor=#e1d5e7;strokeColor=#9673a6;" parent="DIcqsgywZD_siY0p0NZ6-65" vertex="1">
          <mxGeometry x="20" y="25" width="20" height="60" as="geometry" />
        </mxCell>
        <mxCell id="DIcqsgywZD_siY0p0NZ6-24" value="&lt;font&gt;Dropout_1&lt;/font&gt;" style="text;html=1;align=center;verticalAlign=middle;resizable=0;points=[];autosize=1;strokeColor=none;fillColor=none;fontSize=11;spacing=-4;spacingRight=0;" parent="DIcqsgywZD_siY0p0NZ6-65" vertex="1">
          <mxGeometry x="30" y="10" width="60" height="10" as="geometry" />
        </mxCell>
        <mxCell id="DIcqsgywZD_siY0p0NZ6-25" value="&lt;font&gt;Dense_2&lt;/font&gt;" style="text;html=1;align=center;verticalAlign=middle;resizable=0;points=[];autosize=1;strokeColor=none;fillColor=none;fontSize=11;spacing=-4;spacingRight=0;" parent="DIcqsgywZD_siY0p0NZ6-65" vertex="1">
          <mxGeometry x="40" y="25" width="50" height="10" as="geometry" />
        </mxCell>
        <mxCell id="DIcqsgywZD_siY0p0NZ6-26" value="&lt;font&gt;Dropout_2&lt;/font&gt;" style="text;html=1;align=center;verticalAlign=middle;resizable=0;points=[];autosize=1;strokeColor=none;fillColor=none;fontSize=11;spacing=-4;spacingRight=0;" parent="DIcqsgywZD_siY0p0NZ6-65" vertex="1">
          <mxGeometry x="50" y="40" width="60" height="10" as="geometry" />
        </mxCell>
        <mxCell id="DIcqsgywZD_siY0p0NZ6-64" value="" style="rounded=0;whiteSpace=wrap;html=1;fillColor=#d5e8d4;strokeColor=#82b366;" parent="DIcqsgywZD_siY0p0NZ6-65" vertex="1">
          <mxGeometry x="30" y="40" width="20" height="60" as="geometry" />
        </mxCell>
        <mxCell id="DIcqsgywZD_siY0p0NZ6-23" value="&lt;font&gt;Dense_1&lt;/font&gt;" style="text;html=1;align=center;verticalAlign=middle;resizable=0;points=[];autosize=1;strokeColor=none;fillColor=none;fontSize=11;spacing=-4;spacingRight=0;" parent="DIcqsgywZD_siY0p0NZ6-65" vertex="1">
          <mxGeometry x="20" y="-5" width="50" height="10" as="geometry" />
        </mxCell>
        <mxCell id="DIcqsgywZD_siY0p0NZ6-66" value="Output" style="ellipse;whiteSpace=wrap;html=1;fillColor=#ffcc99;strokeColor=#36393d;" parent="1" vertex="1">
          <mxGeometry x="389" y="262.5" width="50" height="55" as="geometry" />
        </mxCell>
        <mxCell id="_ThbXnL_4UXQI2_gU2OW-1" style="edgeStyle=orthogonalEdgeStyle;rounded=0;orthogonalLoop=1;jettySize=auto;html=1;entryX=1;entryY=0.5;entryDx=0;entryDy=0;" edge="1" parent="1" source="DIcqsgywZD_siY0p0NZ6-76" target="DIcqsgywZD_siY0p0NZ6-66">
          <mxGeometry relative="1" as="geometry" />
        </mxCell>
        <mxCell id="DIcqsgywZD_siY0p0NZ6-76" value="" style="rounded=0;whiteSpace=wrap;html=1;fillColor=#d80073;fontColor=#ffffff;strokeColor=#A50040;" parent="1" vertex="1">
          <mxGeometry x="480" y="260" width="20" height="60" as="geometry" />
        </mxCell>
        <mxCell id="DIcqsgywZD_siY0p0NZ6-79" value="&lt;span&gt;Prediction_layer&lt;/span&gt;" style="text;html=1;align=center;verticalAlign=middle;resizable=0;points=[];autosize=1;strokeColor=none;fillColor=none;fontSize=11;spacing=0;" parent="1" vertex="1">
          <mxGeometry x="440" y="320" width="100" height="20" as="geometry" />
        </mxCell>
        <mxCell id="_ThbXnL_4UXQI2_gU2OW-3" style="edgeStyle=orthogonalEdgeStyle;rounded=0;orthogonalLoop=1;jettySize=auto;html=1;entryX=1;entryY=0.5;entryDx=0;entryDy=0;" edge="1" parent="1" source="DIcqsgywZD_siY0p0NZ6-64" target="DIcqsgywZD_siY0p0NZ6-76">
          <mxGeometry relative="1" as="geometry">
            <Array as="points">
              <mxPoint x="540" y="290" />
            </Array>
          </mxGeometry>
        </mxCell>
      </root>
    </mxGraphModel>
  </diagram>
</mxfile>
